# xmcd
#
# Track frame offsets: 
#        182
#        25615
#        42132
#        77757
#        92757
#        110225
#        126452
#        143905
#        165397
#        183105
#        199577
#
# Disc length: 2939 seconds
#
# Revision: 0
# Processed by: cddbd v1.5.2PL0 Copyright (c) Steve Scherf et al.
# Submitted via: ExactAudioCopy v0.99pb5
#
DISCID=8b0b790b
DTITLE=Alabama JR. Pettis and The Teardrops - Nora Lee
DYEAR=1993
DGENRE=Blues
TTITLE0=Nora Lee
TTITLE1=She Don't Love Me
TTITLE2=I'm A Lover
TTITLE3=She's Trying To Get Back
TTITLE4=Worried Blues
TTITLE5=I'm Mad
TTITLE6=Heart Fixin' Blues
TTITLE7=Blues Is A Feeling
TTITLE8=Oh Baby
TTITLE9=Poor Man Blues
TTITLE10=Bad Luck
EXTD=
EXTT0=
EXTT1=
EXTT2=
EXTT3=
EXTT4=
EXTT5=
EXTT6=
EXTT7=
EXTT8=
EXTT9=
EXTT10=
PLAYORDER=
